<?xml version="1.0" standalone="no"?>
<!DOCTYPE svg PUBLIC "-//W3C//DTD SVG 20010904//EN"
 "http://www.w3.org/TR/2001/REC-SVG-20010904/DTD/svg10.dtd">
<svg version="1.0" xmlns="http://www.w3.org/2000/svg"
 width="1600.000000pt" height="1600.000000pt" viewBox="0 0 1600.000000 1600.000000"
 preserveAspectRatio="xMidYMid meet">
<metadata>
Created by potrace 1.14, written by Peter Selinger 2001-2017
</metadata>
<g transform="translate(0.000000,1600.000000) scale(0.100000,-0.100000)"
fill="#000000" stroke="none">
<path d="M3710 15989 c-944 -76 -1817 -465 -2484 -1109 -546 -527 -932 -1199
-1110 -1934 -35 -141 -67 -316 -85 -456 -31 -242 -32 -417 -29 -4600 4 -4599
0 -4234 59 -4575 202 -1169 917 -2189 1949 -2782 494 -284 1013 -450 1615
-515 177 -19 8573 -19 8750 0 504 55 930 175 1363 382 821 396 1476 1053 1871
1880 218 457 340 923 381 1454 14 177 14 8355 0 8532 -34 442 -119 816 -272
1204 -511 1291 -1658 2228 -3018 2465 -372 64 41 59 -4640 61 -2335 1 -4292
-2 -4350 -7z"/>
</g>
</svg>
